<svg width="128" height="34" viewBox="0 0 128 34" fill="none" xmlns="http://www.w3.org/2000/svg">
<path d="M0 31.7823C1.17585 32.3708 3.2305 31.8086 7.05512 29.5752C10.0787 27.8095 15.1181 28.6923 16.126 29.5752C17.1339 30.458 20.1575 32.2237 24.189 30.8994C24.908 30.6633 25.5038 30.3462 26.1288 30.0137C27.6942 29.1809 29.4421 28.2509 33.7638 28.2509C36.0044 28.2509 37.2161 29.3875 38.562 30.6499C40.2431 32.2268 40.6336 33.5 45 33.5C48.0503 33.5 48.7877 32.057 50.5 30.8994C52.2332 29.7277 53.6254 28.7512 55.0898 29.935C59.5 33.5 61.5 31.8639 63.5 30.8994C65.5 29.935 66.5551 30.4524 69 27.8354C71.4449 25.2185 77 25.2583 80.126 27.8354C81.1339 28.6664 84.1575 30.3282 88.189 29.0818C88.908 28.8595 89.5038 28.5611 90.1288 28.2482C91.6942 27.4644 93.4421 26.5891 97.7638 26.5891C100.004 26.5891 101.216 27.6588 102.562 28.847C104.243 30.3311 106.134 32 110.5 32C113.55 32 115.651 30.6636 117.363 29.5741C119.096 28.4713 120.432 27.6214 121.953 28.6664C124.372 30.3282 126.992 28.8048 128 27.8354V0H0V31.7823Z" fill="white"/>
</svg>
